PathFileType	4	(X/Y/Z)	Kaydara																																																																																																																									
DataRate	CameraRate	NumFrames	NumMarkers	Units	OrigDataRate	OrigDataStartFrame	OrigNumFrames																																																																																																																					
30	30	8	41	mm	30	124	144																																																																																																																					
Frame#	Time	EMLA_LFHD			EMLA_RFHD			EMLA_LBHD			EMLA_RBHD			EMLA_LFTShould			EMLA_RFTShould			EMLA_LRRShould			EMLA_RRRShould			EMLA_T10			EMLA_STRN			EMLA_TRUN			EMLA_LSHO			EMLA_LUPA			EMLA_LELB			EMLA_LFRM			EMLA_LWRA			EMLA_LWRB			EMLA_LFIN			EMLA_RSHO			EMLA_RUPA			EMLA_RELB			EMLA_RFRM			EMLA_RWRA			EMLA_RWRB			EMLA_RFIN			EMLA_LFWT			EMLA_RFWT			EMLA_LBWT			EMLA_RBWT			EMLA_LTHI			EMLA_LKNE			EMLA_LSHN			EMLA_LANK			EMLA_LHEE			EMLA_LTOE			EMLA_RTHI			EMLA_RKNE			EMLA_RSHN			EMLA_RANK			EMLA_RHEE			EMLA_RTOE		
		X1	Y1	Z1	X2	Y2	Z2	X3	Y3	Z3	X4	Y4	Z4	X5	Y5	Z5	X6	Y6	Z6	X7	Y7	Z7	X8	Y8	Z8	X9	Y9	Z9	X10	Y10	Z10	X11	Y11	Z11	X12	Y12	Z12	X13	Y13	Z13	X14	Y14	Z14	X15	Y15	Z15	X16	Y16	Z16	X17	Y17	Z17	X18	Y18	Z18	X19	Y19	Z19	X20	Y20	Z20	X21	Y21	Z21	X22	Y22	Z22	X23	Y23	Z23	X24	Y24	Z24	X25	Y25	Z25	X26	Y26	Z26	X27	Y27	Z27	X28	Y28	Z28	X29	Y29	Z29	X30	Y30	Z30	X31	Y31	Z31	X32	Y32	Z32	X33	Y33	Z33	X34	Y34	Z34	X35	Y35	Z35	X36	Y36	Z36	X37	Y37	Z37	X38	Y38	Z38	X39	Y39	Z39	X40	Y40	Z40	X41	Y41	Z41
																																																																																																																												
109	4.1	292.51205	1577.00287	669.11415	122.28762	1576.39618	670.77858	304.3512	1570.27359	518.98998	109.86336	1572.47955	518.56941	294.50191	1346.82693	608.55721	147.03047	1334.83292	618.28663	274.53131	1400.42496	463.45795	119.85495	1389.40323	474.9604	208.29763	1226.59119	413.05664	222.68209	1273.75656	648.49411	217.99009	1170.20737	664.23012	413.2209	1373.80783	545.30693	474.25816	1207.09351	483.65261	500.78228	1072.81784	442.2448	514.4931	942.22664	408.09551	462.57679	769.47479	451.84822	509.03473	776.84875	380.00496	517.53094	727.61284	427.3674	21.14886	1370.69702	560.54432	-37.89393	1188.29941	613.06263	-64.95197	1047.43835	644.59427	-58.64449	949.99832	687.82272	29.37356	867.89474	852.69882	-19.27142	812.02225	805.68451	-25.30495	816.35101	870.74699	296.46963	927.86896	631.63704	68.30583	927.07817	580.97191	313.56348	945.63538	428.47572	139.36895	964.16519	406.02505	354.64424	654.79454	563.56911	356.83052	503.11642	714.64737	329.50466	336.13556	793.13568	326.8993	144.02781	790.65193	257.22219	49.45566	764.76257	299.54136	103.59196	950.22591	122.99597	700.64941	349.68334	97.02908	483.71861	366.74732	168.05	267.80033	334.46953	155.0851	121.266	223.95369	217.72335	84.03269	163.42133	191.79111	44.95449	358.63949
110	4.133	295.00191	1568.18161	721.02539	124.81598	1568.42728	723.05855	306.51026	1559.62463	570.99102	112.10852	1562.82715	570.90435	296.35372	1336.65543	661.51108	148.67181	1324.84024	671.79726	274.96172	1391.88507	517.45266	120.24976	1381.32614	529.29333	208.11104	1218.91617	465.00656	224.48486	1263.452	701.17844	219.73217	1159.79156	716.0466	414.4445	1364.10263	597.36286	473.27965	1198.93471	529.14276	498.17074	1066.95015	482.68509	513.95618	940.74181	440.29362	470.14812	763.032	472.90333	513.76205	778.04993	400.59883	525.31166	725.28641	443.18264	23.11572	1361.74561	615.84019	-35.95817	1180.79903	671.37146	-64.08725	1041.10832	705.80925	-56.08012	945.42267	754.19762	34.46432	874.66705	922.94762	-13.37216	815.24338	879.60396	-18.97616	823.13492	944.40674	296.82161	920.35576	685.31105	69.97331	919.98177	631.58516	318.9493	934.1069	483.44769	145.41505	954.80339	457.53967	355.94429	641.69113	615.13256	352.36691	488.82286	762.57477	326.03004	336.15295	860.00832	327.50874	146.23531	882.07962	261.43026	47.06368	867.01797	293.26574	123.20708	1047.31613	122.89621	702.7552	394.30206	94.22935	484.75975	399.83624	164.27752	270.3264	353.11726	149.31434	131.34987	232.82446	210.93866	99.15976	169.13588	190.25269	44.68116	360.0095
111	4.167	298.05168	1562.01294	774.3692	127.85385	1562.6712	776.69731	309.26153	1551.19736	624.49715	114.8893	1554.78531	624.61624	299.3716	1328.57086	716.36589	151.31668	1317.04117	727.35977	276.93163	1385.18173	572.5272	122.02219	1374.43497	585.03387	209.43188	1212.12837	519.87148	227.25954	1255.62469	756.37444	222.24525	1151.85013	770.65041	417.01019	1356.1087	651.21498	473.23219	1191.54282	578.20576	496.17599	1061.36009	528.48244	513.14869	939.74327	479.26155	476.09459	758.58452	502.34276	516.90865	780.21759	429.688	531.04946	724.69383	467.61822	25.81207	1354.39102	671.86096	-33.79167	1174.42955	728.98697	-62.58339	1035.10414	764.54613	-53.44898	940.64957	815.79666	38.17548	877.44141	986.84486	-9.08539	815.72548	945.99297	-14.54488	825.96024	1010.51292	298.21606	915.95123	740.79788	71.29206	912.81548	688.21762	322.77718	926.4843	540.07557	149.25492	947.45903	514.42032	354.84848	635.26798	672.53716	348.69217	482.96368	819.17976	321.18717	330.63927	916.51886	318.76595	141.30597	939.20723	249.0049	42.64009	926.53244	290.47241	120.15477	1104.62479	124.40275	700.33623	449.38057	91.33732	483.58501	444.63089	160.04499	272.4321	379.76822	142.75818	144.65799	247.37293	203.15987	119.88246	180.56255	189.05704	44.22739	362.82333
112	4.2	301.37085	1558.27835	828.7368	131.19212	1558.4758	831.15982	312.55133	1545.50461	679.04068	118.17532	1548.51654	679.17549	303.1406	1323.60504	772.8112	155.03308	1312.77405	784.83688	279.71149	1379.20227	628.47832	125.06611	1368.58414	641.55502	211.41218	1205.62279	577.86144	231.24594	1251.2532	813.95264	226.12978	1147.44553	828.79417	420.3344	1350.34439	706.46423	474.56383	1186.07849	631.21529	495.28297	1057.0459	579.33952	512.60765	938.76511	525.00679	480.85567	756.25137	542.48741	518.50494	782.42294	468.9254	534.19556	724.66988	503.08338	29.26807	1349.75922	729.05716	-31.06981	1169.86107	785.34744	-60.6462	1030.55519	820.09254	-51.18991	936.27258	872.05124	40.08737	875.86708	1044.30931	-6.71258	813.28453	1004.15817	-12.56347	824.60609	1068.48083	302.72839	912.65259	799.8481	74.2485	904.44351	752.7565	322.85172	924.92332	599.03534	148.75949	941.10756	578.00957	359.0052	636.8943	736.75301	349.73801	480.05066	878.60214	317.17062	316.26827	963.70193	306.78843	125.54856	967.22092	236.5527	34.33425	946.48689	274.64275	89.31122	1131.16859	127.99303	695.5481	511.34315	86.95836	480.86929	499.56654	154.36178	274.40273	415.00816	135.85989	161.25656	269.39198	195.78327	145.48155	201.34434	188.29845	43.54957	367.59953
113	4.233	304.78498	1558.54034	883.67569	134.63014	1558.3934	886.15105	315.93845	1544.18243	734.15565	121.53788	1546.7627	734.24568	307.78214	1321.68289	829.79355	159.21352	1311.65451	843.57544	283.50887	1376.4595	685.31609	128.59274	1366.689	699.29535	213.76741	1201.16234	636.98029	236.0745	1250.73456	872.49962	230.99398	1147.3288	889.48318	424.56982	1346.77719	762.53654	477.15759	1181.90208	687.31201	495.96542	1053.25829	634.25262	512.44503	936.61812	578.1918	481.40976	752.78435	591.14494	518.7788	782.18346	518.88908	534.76696	723.09502	550.45498	32.8246	1348.06976	787.98317	-27.99047	1166.93642	841.21246	-58.53979	1026.7733	872.18422	-49.36463	931.9957	922.90627	39.96614	870.0444	1095.41527	-5.9184	807.70454	1053.97308	-12.74351	818.30276	1118.40187	307.97447	918.18802	858.51448	78.8762	896.7556	819.3457	321.9096	928.27354	656.61125	144.9084	936.10374	641.82716	359.97749	641.81961	793.40233	351.61785	487.68875	937.50587	312.2048	319.82832	1015.26253	308.85372	131.83445	1004.5269	242.81708	44.6488	958.83934	262.88776	58.11103	1156.26823	129.45083	686.01036	579.17545	81.70485	471.93687	568.89126	146.80077	273.87928	463.39718	127.64614	179.10301	304.0291	187.96305	174.3111	238.54055	188.18888	40.80599	374.69753
114	4.267	307.81862	1562.14447	938.28758	137.70171	1560.48447	940.91637	319.06179	1546.08902	788.94279	124.56801	1546.96625	789.21555	311.11172	1322.43942	885.95024	163.7141	1315.61432	902.11014	285.20912	1377.20322	741.78055	129.66158	1368.63235	757.8376	212.15906	1203.15758	696.61102	240.59187	1253.4317	930.07294	235.84038	1150.27946	948.81851	427.27463	1346.85364	818.46024	479.50905	1180.69817	745.66696	497.39109	1051.08246	693.84941	513.03822	934.14597	638.5651	480.91347	750.37712	652.84958	518.90018	779.81621	580.34218	533.23074	719.92989	611.39057	35.35475	1350.8725	849.88594	-25.92518	1167.00211	895.74348	-55.70807	1025.55702	919.55971	-47.55893	929.2424	966.9915	38.13634	860.80917	1138.75237	-5.9977	799.80728	1093.68477	-14.87473	807.96478	1158.18382	313.27389	925.61035	913.88153	84.63264	892.44522	880.89935	316.78173	934.61098	710.55222	139.82754	932.42905	701.63162	370.76035	650.32997	850.71663	357.53944	491.89514	996.53763	317.29118	315.23973	1052.78282	312.362	125.91772	1018.58467	243.10614	49.31301	965.07416	264.70901	45.68402	1164.03252	127.99229	668.396	652.8727	74.52721	456.7659	656.71028	139.28329	270.95598	529.21459	122.5776	199.72668	357.72331	183.24015	210.16943	296.92089	185.10082	43.81003	389.98615
115	4.3	309.82845	1566.40533	991.69334	139.64322	1564.6846	994.58878	320.79159	1549.67453	842.45735	126.34178	1550.49759	843.01186	312.5997	1326.78864	939.61525	165.1733	1318.80829	957.46155	285.62344	1380.79208	795.8107	129.96593	1373.41766	813.7915	211.32879	1206.83609	751.05415	242.43412	1257.11258	984.72641	237.57132	1154.12514	1003.39859	428.29483	1349.8764	871.36406	480.76054	1181.5078	804.56779	498.97198	1049.93057	755.69229	514.11377	930.58212	704.88411	479.54956	747.8154	726.07986	518.64929	774.30809	653.0529	530.84007	714.80392	685.78445	36.90728	1355.76981	906.91696	-22.90908	1170.72899	949.8275	-53.33808	1027.31628	964.05777	-46.29085	928.47397	1005.58258	35.91724	848.65936	1173.9756	-6.72552	790.68802	1123.69995	-17.69728	794.56284	1188.17955	316.06298	932.59315	965.5938	87.37496	892.86659	934.52087	317.41665	939.86092	761.62827	140.46412	932.21519	754.23912	372.88017	654.11461	893.92464	362.59403	491.58699	1034.13818	318.668	311.20075	1077.9435	310.90107	127.6792	1026.40846	242.51705	50.77183	965.92163	261.0317	44.39603	1165.44044	127.07771	643.79448	728.44627	71.31537	440.24773	755.1548	135.53075	273.64502	611.02272	120.90322	228.64342	430.02083	183.42609	250.44565	380.68424	167.64143	59.92936	424.92371
116	4.333	310.21072	1573.27148	1043.8929	140.07432	1572.4379	1046.85791	321.04725	1556.5918	894.673	126.59144	1558.42896	895.28198	312.00602	1332.85614	991.20438	164.64451	1326.69083	1009.14932	286.1511	1388.6673	847.01462	130.274	1381.05591	864.94003	212.28153	1215.05661	801.88766	241.28548	1263.18855	1035.93018	236.20186	1159.91035	1052.71202	428.4914	1356.32904	923.20984	481.03283	1184.88091	861.60393	500.07713	1050.74097	819.47227	514.54868	927.82288	776.41052	476.79035	748.02078	810.07103	517.04651	767.86827	735.54825	528.24348	711.25542	772.95967	36.04116	1362.45316	957.57889	-20.65537	1176.07361	996.97166	-50.95464	1031.38084	1004.71611	-45.36624	930.71678	1038.37265	33.45515	835.9417	1200.76073	-9.37727	783.31421	1145.19508	-20.90805	781.2178	1209.49036	319.23635	940.1107	1015.61691	89.94938	900.77164	986.12007	319.04312	948.06168	811.97922	142.15407	935.75722	803.47519	371.25919	659.31442	929.92813	362.26387	489.52393	1060.92102	319.15644	306.99512	1094.20326	308.29985	127.75507	1031.21178	240.84681	51.87548	966.81961	258.1765	43.42799	1166.43669	130.79112	633.60638	803.78952	67.93095	438.02269	857.63252	133.72441	282.48051	705.62119	125.38845	257.63485	519.57111	195.95041	272.58358	477.04735	135.34101	86.01616	502.68105
